<svg width="300" height="200" viewBox="0 0 300 200" fill="none" xmlns="http://www.w3.org/2000/svg">
<path d="M175 112.5V162.5H125V112.5H87.5L150 50L212.5 112.5H175ZM241.875 75.375C233.375 32.375 195.5 0 150 0C113.875 0 82.5 20.5 66.875 50.375C29.25 54.5 0 86.25 0 125C0 144.891 7.90176 163.968 21.967 178.033C36.0322 192.098 55.1088 200 75 200H237.5C245.708 200 253.835 198.383 261.418 195.242C269.001 192.102 275.891 187.498 281.694 181.694C287.498 175.891 292.102 169.001 295.242 161.418C298.383 153.835 300 145.708 300 137.5C300 104.5 274.375 77.75 241.875 75.375Z" fill="#67676C"/>
</svg>
